<mxfile host="app.diagrams.net" agent="Mozilla/5.0 (X11; Linux x86_64) AppleWebKit/537.36 (KHTML, like Gecko) Chrome/129.0.0.0 Safari/537.36" version="24.7.17">
  <diagram name="Page-1" id="H7nm1h64yGsbNuBJFVLZ">
    <mxGraphModel dx="2270" dy="1754" grid="1" gridSize="10" guides="1" tooltips="1" connect="1" arrows="1" fold="1" page="1" pageScale="1" pageWidth="583" pageHeight="827" math="0" shadow="0">
      <root>
        <mxCell id="0" />
        <mxCell id="1" parent="0" />
        <mxCell id="JxqodUXicBKc64Hk-ndb-1" value="book" style="rounded=0;whiteSpace=wrap;html=1;fillColor=#f8cecc;strokeColor=#b85450;" vertex="1" parent="1">
          <mxGeometry x="425" y="290" width="120" height="60" as="geometry" />
        </mxCell>
        <mxCell id="JxqodUXicBKc64Hk-ndb-3" style="edgeStyle=orthogonalEdgeStyle;rounded=0;orthogonalLoop=1;jettySize=auto;html=1;" edge="1" parent="1" source="JxqodUXicBKc64Hk-ndb-2" target="JxqodUXicBKc64Hk-ndb-1">
          <mxGeometry relative="1" as="geometry" />
        </mxCell>
        <mxCell id="JxqodUXicBKc64Hk-ndb-2" value="ISBN" style="ellipse;whiteSpace=wrap;html=1;fillColor=#a0522d;strokeColor=#6D1F00;fontColor=#ffffff;" vertex="1" parent="1">
          <mxGeometry x="285" y="-20" width="90" height="50" as="geometry" />
        </mxCell>
        <mxCell id="JxqodUXicBKc64Hk-ndb-9" style="edgeStyle=orthogonalEdgeStyle;rounded=0;orthogonalLoop=1;jettySize=auto;html=1;entryX=0.75;entryY=0;entryDx=0;entryDy=0;" edge="1" parent="1" source="JxqodUXicBKc64Hk-ndb-4" target="JxqodUXicBKc64Hk-ndb-1">
          <mxGeometry relative="1" as="geometry" />
        </mxCell>
        <mxCell id="JxqodUXicBKc64Hk-ndb-4" value="title" style="ellipse;whiteSpace=wrap;html=1;fillColor=#a0522d;strokeColor=#6D1F00;fontColor=#ffffff;" vertex="1" parent="1">
          <mxGeometry x="590" y="120" width="100" height="60" as="geometry" />
        </mxCell>
        <mxCell id="JxqodUXicBKc64Hk-ndb-7" style="edgeStyle=orthogonalEdgeStyle;rounded=0;orthogonalLoop=1;jettySize=auto;html=1;entryX=0.25;entryY=0;entryDx=0;entryDy=0;" edge="1" parent="1" source="JxqodUXicBKc64Hk-ndb-5" target="JxqodUXicBKc64Hk-ndb-1">
          <mxGeometry relative="1" as="geometry" />
        </mxCell>
        <mxCell id="JxqodUXicBKc64Hk-ndb-5" value="publish_year" style="ellipse;whiteSpace=wrap;html=1;fillColor=#a0522d;strokeColor=#6D1F00;fontColor=#ffffff;" vertex="1" parent="1">
          <mxGeometry x="280" y="120" width="100" height="60" as="geometry" />
        </mxCell>
        <mxCell id="JxqodUXicBKc64Hk-ndb-50" style="edgeStyle=orthogonalEdgeStyle;rounded=0;orthogonalLoop=1;jettySize=auto;html=1;entryX=1;entryY=0.5;entryDx=0;entryDy=0;" edge="1" parent="1" source="JxqodUXicBKc64Hk-ndb-10" target="JxqodUXicBKc64Hk-ndb-15">
          <mxGeometry relative="1" as="geometry" />
        </mxCell>
        <mxCell id="JxqodUXicBKc64Hk-ndb-10" value="author" style="rounded=0;whiteSpace=wrap;html=1;fillColor=#f8cecc;strokeColor=#b85450;" vertex="1" parent="1">
          <mxGeometry x="720" y="610" width="120" height="60" as="geometry" />
        </mxCell>
        <mxCell id="JxqodUXicBKc64Hk-ndb-14" style="edgeStyle=orthogonalEdgeStyle;rounded=0;orthogonalLoop=1;jettySize=auto;html=1;entryX=0.25;entryY=1;entryDx=0;entryDy=0;" edge="1" parent="1" source="JxqodUXicBKc64Hk-ndb-11" target="JxqodUXicBKc64Hk-ndb-10">
          <mxGeometry relative="1" as="geometry" />
        </mxCell>
        <mxCell id="JxqodUXicBKc64Hk-ndb-11" value="&lt;u&gt;id&lt;/u&gt;" style="ellipse;whiteSpace=wrap;html=1;fillColor=#a0522d;strokeColor=#6D1F00;fontColor=#ffffff;" vertex="1" parent="1">
          <mxGeometry x="640" y="767" width="100" height="60" as="geometry" />
        </mxCell>
        <mxCell id="JxqodUXicBKc64Hk-ndb-13" style="edgeStyle=orthogonalEdgeStyle;rounded=0;orthogonalLoop=1;jettySize=auto;html=1;entryX=0.75;entryY=1;entryDx=0;entryDy=0;" edge="1" parent="1" source="JxqodUXicBKc64Hk-ndb-12" target="JxqodUXicBKc64Hk-ndb-10">
          <mxGeometry relative="1" as="geometry" />
        </mxCell>
        <mxCell id="JxqodUXicBKc64Hk-ndb-12" value="name" style="ellipse;whiteSpace=wrap;html=1;fillColor=#a0522d;strokeColor=#6D1F00;fontColor=#ffffff;" vertex="1" parent="1">
          <mxGeometry x="820" y="772" width="100" height="50" as="geometry" />
        </mxCell>
        <mxCell id="JxqodUXicBKc64Hk-ndb-49" style="edgeStyle=orthogonalEdgeStyle;rounded=0;orthogonalLoop=1;jettySize=auto;html=1;entryX=0.25;entryY=1;entryDx=0;entryDy=0;" edge="1" parent="1" source="JxqodUXicBKc64Hk-ndb-15" target="JxqodUXicBKc64Hk-ndb-1">
          <mxGeometry relative="1" as="geometry" />
        </mxCell>
        <mxCell id="JxqodUXicBKc64Hk-ndb-15" value="written_by" style="rhombus;whiteSpace=wrap;html=1;fillColor=#d5e8d4;strokeColor=#82b366;" vertex="1" parent="1">
          <mxGeometry x="400" y="600" width="110" height="80" as="geometry" />
        </mxCell>
        <mxCell id="JxqodUXicBKc64Hk-ndb-53" style="edgeStyle=orthogonalEdgeStyle;rounded=0;orthogonalLoop=1;jettySize=auto;html=1;entryX=1;entryY=0.5;entryDx=0;entryDy=0;" edge="1" parent="1" source="JxqodUXicBKc64Hk-ndb-18" target="JxqodUXicBKc64Hk-ndb-19">
          <mxGeometry relative="1" as="geometry" />
        </mxCell>
        <mxCell id="JxqodUXicBKc64Hk-ndb-18" value="categories" style="rounded=0;whiteSpace=wrap;html=1;fillColor=#f8cecc;strokeColor=#b85450;" vertex="1" parent="1">
          <mxGeometry x="950" y="270" width="120" height="60" as="geometry" />
        </mxCell>
        <mxCell id="JxqodUXicBKc64Hk-ndb-52" style="edgeStyle=orthogonalEdgeStyle;rounded=0;orthogonalLoop=1;jettySize=auto;html=1;" edge="1" parent="1" source="JxqodUXicBKc64Hk-ndb-19">
          <mxGeometry relative="1" as="geometry">
            <mxPoint x="540" y="300" as="targetPoint" />
          </mxGeometry>
        </mxCell>
        <mxCell id="JxqodUXicBKc64Hk-ndb-19" value="belongs_to" style="rhombus;whiteSpace=wrap;html=1;fillColor=#d5e8d4;strokeColor=#82b366;" vertex="1" parent="1">
          <mxGeometry x="700" y="260" width="100" height="80" as="geometry" />
        </mxCell>
        <mxCell id="JxqodUXicBKc64Hk-ndb-23" style="edgeStyle=orthogonalEdgeStyle;rounded=0;orthogonalLoop=1;jettySize=auto;html=1;" edge="1" parent="1" source="JxqodUXicBKc64Hk-ndb-22" target="JxqodUXicBKc64Hk-ndb-18">
          <mxGeometry relative="1" as="geometry" />
        </mxCell>
        <mxCell id="JxqodUXicBKc64Hk-ndb-22" value="name" style="ellipse;whiteSpace=wrap;html=1;fillColor=#a0522d;fontColor=#ffffff;strokeColor=#6D1F00;" vertex="1" parent="1">
          <mxGeometry x="965" y="90" width="90" height="50" as="geometry" />
        </mxCell>
        <mxCell id="JxqodUXicBKc64Hk-ndb-24" value="&lt;font style=&quot;font-size: 20px;&quot;&gt;N&lt;/font&gt;" style="text;html=1;align=center;verticalAlign=middle;resizable=0;points=[];autosize=1;strokeColor=none;fillColor=none;" vertex="1" parent="1">
          <mxGeometry x="450" y="560" width="40" height="40" as="geometry" />
        </mxCell>
        <mxCell id="JxqodUXicBKc64Hk-ndb-25" value="&lt;font style=&quot;font-size: 20px;&quot;&gt;M&lt;/font&gt;" style="text;html=1;align=center;verticalAlign=middle;resizable=0;points=[];autosize=1;strokeColor=none;fillColor=none;" vertex="1" parent="1">
          <mxGeometry x="510" y="600" width="40" height="40" as="geometry" />
        </mxCell>
        <mxCell id="JxqodUXicBKc64Hk-ndb-35" style="edgeStyle=orthogonalEdgeStyle;rounded=0;orthogonalLoop=1;jettySize=auto;html=1;" edge="1" parent="1" source="JxqodUXicBKc64Hk-ndb-36" target="JxqodUXicBKc64Hk-ndb-30">
          <mxGeometry relative="1" as="geometry" />
        </mxCell>
        <mxCell id="JxqodUXicBKc64Hk-ndb-26" value="user" style="rounded=0;whiteSpace=wrap;html=1;fillColor=#f8cecc;strokeColor=#b85450;" vertex="1" parent="1">
          <mxGeometry x="-110" y="200" width="120" height="60" as="geometry" />
        </mxCell>
        <mxCell id="JxqodUXicBKc64Hk-ndb-32" style="edgeStyle=orthogonalEdgeStyle;rounded=0;orthogonalLoop=1;jettySize=auto;html=1;" edge="1" parent="1" source="JxqodUXicBKc64Hk-ndb-27" target="JxqodUXicBKc64Hk-ndb-26">
          <mxGeometry relative="1" as="geometry" />
        </mxCell>
        <mxCell id="JxqodUXicBKc64Hk-ndb-27" value="&lt;u&gt;id&lt;/u&gt;" style="ellipse;whiteSpace=wrap;html=1;fillColor=#a0522d;fontColor=#ffffff;strokeColor=#6D1F00;" vertex="1" parent="1">
          <mxGeometry x="-100" y="-50" width="100" height="60" as="geometry" />
        </mxCell>
        <mxCell id="JxqodUXicBKc64Hk-ndb-33" style="edgeStyle=orthogonalEdgeStyle;rounded=0;orthogonalLoop=1;jettySize=auto;html=1;entryX=0.75;entryY=0;entryDx=0;entryDy=0;" edge="1" parent="1" source="JxqodUXicBKc64Hk-ndb-28" target="JxqodUXicBKc64Hk-ndb-26">
          <mxGeometry relative="1" as="geometry" />
        </mxCell>
        <mxCell id="JxqodUXicBKc64Hk-ndb-28" value="name" style="ellipse;whiteSpace=wrap;html=1;fillColor=#a0522d;fontColor=#ffffff;strokeColor=#6D1F00;" vertex="1" parent="1">
          <mxGeometry x="60" y="55" width="100" height="60" as="geometry" />
        </mxCell>
        <mxCell id="JxqodUXicBKc64Hk-ndb-34" style="edgeStyle=orthogonalEdgeStyle;rounded=0;orthogonalLoop=1;jettySize=auto;html=1;entryX=0.25;entryY=0;entryDx=0;entryDy=0;" edge="1" parent="1" source="JxqodUXicBKc64Hk-ndb-29" target="JxqodUXicBKc64Hk-ndb-26">
          <mxGeometry relative="1" as="geometry" />
        </mxCell>
        <mxCell id="JxqodUXicBKc64Hk-ndb-29" value="name" style="ellipse;whiteSpace=wrap;html=1;fillColor=#a0522d;fontColor=#ffffff;strokeColor=#6D1F00;" vertex="1" parent="1">
          <mxGeometry x="-270" y="60" width="100" height="50" as="geometry" />
        </mxCell>
        <mxCell id="JxqodUXicBKc64Hk-ndb-30" value="student" style="rounded=0;whiteSpace=wrap;html=1;fillColor=#f8cecc;strokeColor=#b85450;" vertex="1" parent="1">
          <mxGeometry x="-110" y="420" width="120" height="60" as="geometry" />
        </mxCell>
        <mxCell id="JxqodUXicBKc64Hk-ndb-38" value="" style="edgeStyle=orthogonalEdgeStyle;rounded=0;orthogonalLoop=1;jettySize=auto;html=1;" edge="1" parent="1" source="JxqodUXicBKc64Hk-ndb-26" target="JxqodUXicBKc64Hk-ndb-36">
          <mxGeometry relative="1" as="geometry">
            <mxPoint x="-50" y="260" as="sourcePoint" />
            <mxPoint x="-50" y="420" as="targetPoint" />
          </mxGeometry>
        </mxCell>
        <mxCell id="JxqodUXicBKc64Hk-ndb-36" value="" style="shape=requiredInterface;html=1;verticalLabelPosition=bottom;sketch=0;rotation=90;" vertex="1" parent="1">
          <mxGeometry x="-60" y="330" width="20" height="40" as="geometry" />
        </mxCell>
        <mxCell id="JxqodUXicBKc64Hk-ndb-41" style="edgeStyle=orthogonalEdgeStyle;rounded=0;orthogonalLoop=1;jettySize=auto;html=1;entryX=1;entryY=0.5;entryDx=0;entryDy=0;" edge="1" parent="1" source="JxqodUXicBKc64Hk-ndb-39" target="JxqodUXicBKc64Hk-ndb-26">
          <mxGeometry relative="1" as="geometry" />
        </mxCell>
        <mxCell id="JxqodUXicBKc64Hk-ndb-42" style="edgeStyle=orthogonalEdgeStyle;rounded=0;orthogonalLoop=1;jettySize=auto;html=1;entryX=0;entryY=0.25;entryDx=0;entryDy=0;" edge="1" parent="1" source="JxqodUXicBKc64Hk-ndb-39" target="JxqodUXicBKc64Hk-ndb-1">
          <mxGeometry relative="1" as="geometry" />
        </mxCell>
        <mxCell id="JxqodUXicBKc64Hk-ndb-39" value="reads_at_place" style="rhombus;whiteSpace=wrap;html=1;fillColor=#d5e8d4;strokeColor=#82b366;" vertex="1" parent="1">
          <mxGeometry x="140" y="210" width="110" height="80" as="geometry" />
        </mxCell>
        <mxCell id="JxqodUXicBKc64Hk-ndb-43" style="edgeStyle=orthogonalEdgeStyle;rounded=0;orthogonalLoop=1;jettySize=auto;html=1;entryX=1;entryY=0.5;entryDx=0;entryDy=0;" edge="1" parent="1" source="JxqodUXicBKc64Hk-ndb-40" target="JxqodUXicBKc64Hk-ndb-30">
          <mxGeometry relative="1" as="geometry" />
        </mxCell>
        <mxCell id="JxqodUXicBKc64Hk-ndb-44" style="edgeStyle=orthogonalEdgeStyle;rounded=0;orthogonalLoop=1;jettySize=auto;html=1;entryX=0;entryY=0.75;entryDx=0;entryDy=0;" edge="1" parent="1" source="JxqodUXicBKc64Hk-ndb-40" target="JxqodUXicBKc64Hk-ndb-1">
          <mxGeometry relative="1" as="geometry" />
        </mxCell>
        <mxCell id="JxqodUXicBKc64Hk-ndb-40" value="borrow" style="rhombus;whiteSpace=wrap;html=1;fillColor=#d5e8d4;strokeColor=#82b366;" vertex="1" parent="1">
          <mxGeometry x="140" y="350" width="110" height="80" as="geometry" />
        </mxCell>
        <mxCell id="JxqodUXicBKc64Hk-ndb-46" style="edgeStyle=orthogonalEdgeStyle;rounded=0;orthogonalLoop=1;jettySize=auto;html=1;" edge="1" parent="1" source="JxqodUXicBKc64Hk-ndb-45" target="JxqodUXicBKc64Hk-ndb-40">
          <mxGeometry relative="1" as="geometry" />
        </mxCell>
        <mxCell id="JxqodUXicBKc64Hk-ndb-45" value="&lt;u&gt;Book_Id&lt;/u&gt;" style="ellipse;whiteSpace=wrap;html=1;fillColor=#a0522d;fontColor=#ffffff;strokeColor=#6D1F00;" vertex="1" parent="1">
          <mxGeometry x="80" y="513" width="90" height="60" as="geometry" />
        </mxCell>
        <mxCell id="JxqodUXicBKc64Hk-ndb-48" style="edgeStyle=orthogonalEdgeStyle;rounded=0;orthogonalLoop=1;jettySize=auto;html=1;entryX=0.5;entryY=1;entryDx=0;entryDy=0;" edge="1" parent="1" source="JxqodUXicBKc64Hk-ndb-47" target="JxqodUXicBKc64Hk-ndb-40">
          <mxGeometry relative="1" as="geometry" />
        </mxCell>
        <mxCell id="JxqodUXicBKc64Hk-ndb-47" value="return_value" style="ellipse;whiteSpace=wrap;html=1;fillColor=#a0522d;fontColor=#ffffff;strokeColor=#6D1F00;" vertex="1" parent="1">
          <mxGeometry x="220" y="513" width="88" height="57" as="geometry" />
        </mxCell>
        <mxCell id="JxqodUXicBKc64Hk-ndb-55" style="edgeStyle=orthogonalEdgeStyle;rounded=0;orthogonalLoop=1;jettySize=auto;html=1;" edge="1" parent="1" source="JxqodUXicBKc64Hk-ndb-54" target="JxqodUXicBKc64Hk-ndb-1">
          <mxGeometry relative="1" as="geometry">
            <mxPoint x="550" y="320" as="targetPoint" />
            <Array as="points">
              <mxPoint x="665" y="330" />
            </Array>
          </mxGeometry>
        </mxCell>
        <mxCell id="JxqodUXicBKc64Hk-ndb-56" style="edgeStyle=orthogonalEdgeStyle;rounded=0;orthogonalLoop=1;jettySize=auto;html=1;entryX=0.613;entryY=1.01;entryDx=0;entryDy=0;entryPerimeter=0;" edge="1" parent="1" source="JxqodUXicBKc64Hk-ndb-54" target="JxqodUXicBKc64Hk-ndb-1">
          <mxGeometry relative="1" as="geometry" />
        </mxCell>
        <mxCell id="JxqodUXicBKc64Hk-ndb-54" value="copy_of" style="rhombus;whiteSpace=wrap;html=1;fillColor=#d5e8d4;strokeColor=#82b366;" vertex="1" parent="1">
          <mxGeometry x="610" y="420" width="110" height="80" as="geometry" />
        </mxCell>
        <mxCell id="JxqodUXicBKc64Hk-ndb-58" style="edgeStyle=orthogonalEdgeStyle;rounded=0;orthogonalLoop=1;jettySize=auto;html=1;entryX=0.5;entryY=0;entryDx=0;entryDy=0;" edge="1" parent="1" source="JxqodUXicBKc64Hk-ndb-57" target="JxqodUXicBKc64Hk-ndb-1">
          <mxGeometry relative="1" as="geometry" />
        </mxCell>
        <mxCell id="JxqodUXicBKc64Hk-ndb-57" value="&lt;u&gt;book_id&lt;/u&gt;" style="ellipse;whiteSpace=wrap;html=1;fillColor=#a0522d;strokeColor=#6D1F00;fontColor=#ffffff;" vertex="1" parent="1">
          <mxGeometry x="595" y="-20" width="90" height="50" as="geometry" />
        </mxCell>
        <mxCell id="JxqodUXicBKc64Hk-ndb-60" style="edgeStyle=orthogonalEdgeStyle;rounded=0;orthogonalLoop=1;jettySize=auto;html=1;" edge="1" parent="1" source="JxqodUXicBKc64Hk-ndb-59" target="JxqodUXicBKc64Hk-ndb-1">
          <mxGeometry relative="1" as="geometry" />
        </mxCell>
        <mxCell id="JxqodUXicBKc64Hk-ndb-59" value="parent_book_id" style="ellipse;whiteSpace=wrap;html=1;fillColor=#a0522d;strokeColor=#6D1F00;fontColor=#ffffff;" vertex="1" parent="1">
          <mxGeometry x="440" y="-120" width="90" height="50" as="geometry" />
        </mxCell>
        <mxCell id="JxqodUXicBKc64Hk-ndb-61" value="&lt;font style=&quot;font-size: 17px;&quot;&gt;M&lt;/font&gt;" style="text;html=1;align=center;verticalAlign=middle;resizable=0;points=[];autosize=1;strokeColor=none;fillColor=none;" vertex="1" parent="1">
          <mxGeometry x="660" y="388" width="40" height="30" as="geometry" />
        </mxCell>
        <mxCell id="JxqodUXicBKc64Hk-ndb-62" value="&lt;font style=&quot;font-size: 19px;&quot;&gt;1&lt;/font&gt;" style="text;html=1;align=center;verticalAlign=middle;resizable=0;points=[];autosize=1;strokeColor=none;fillColor=none;" vertex="1" parent="1">
          <mxGeometry x="575" y="453" width="30" height="40" as="geometry" />
        </mxCell>
        <mxCell id="JxqodUXicBKc64Hk-ndb-63" value="&lt;font style=&quot;font-size: 16px;&quot;&gt;Copy&lt;/font&gt;" style="text;html=1;align=center;verticalAlign=middle;resizable=0;points=[];autosize=1;strokeColor=none;fillColor=none;" vertex="1" parent="1">
          <mxGeometry x="670" y="358" width="60" height="30" as="geometry" />
        </mxCell>
        <mxCell id="JxqodUXicBKc64Hk-ndb-64" value="&lt;font style=&quot;font-size: 15px;&quot;&gt;Original&lt;/font&gt;" style="text;html=1;align=center;verticalAlign=middle;resizable=0;points=[];autosize=1;strokeColor=none;fillColor=none;" vertex="1" parent="1">
          <mxGeometry x="550" y="480" width="80" height="30" as="geometry" />
        </mxCell>
        <mxCell id="JxqodUXicBKc64Hk-ndb-65" value="&lt;font style=&quot;font-size: 16px;&quot;&gt;N&lt;/font&gt;" style="text;html=1;align=center;verticalAlign=middle;resizable=0;points=[];autosize=1;strokeColor=none;fillColor=none;" vertex="1" parent="1">
          <mxGeometry x="240" y="358" width="40" height="30" as="geometry" />
        </mxCell>
        <mxCell id="JxqodUXicBKc64Hk-ndb-66" value="&lt;font style=&quot;font-size: 17px;&quot;&gt;1&lt;/font&gt;" style="text;html=1;align=center;verticalAlign=middle;resizable=0;points=[];autosize=1;strokeColor=none;fillColor=none;" vertex="1" parent="1">
          <mxGeometry x="105" y="358" width="30" height="30" as="geometry" />
        </mxCell>
        <mxCell id="JxqodUXicBKc64Hk-ndb-68" value="&lt;font style=&quot;font-size: 17px;&quot;&gt;1&lt;/font&gt;" style="text;html=1;align=center;verticalAlign=middle;resizable=0;points=[];autosize=1;strokeColor=none;fillColor=none;" vertex="1" parent="1">
          <mxGeometry x="110" y="215" width="30" height="30" as="geometry" />
        </mxCell>
        <mxCell id="JxqodUXicBKc64Hk-ndb-69" value="&lt;font style=&quot;font-size: 16px;&quot;&gt;N&lt;/font&gt;" style="text;html=1;align=center;verticalAlign=middle;resizable=0;points=[];autosize=1;strokeColor=none;fillColor=none;" vertex="1" parent="1">
          <mxGeometry x="240" y="215" width="40" height="30" as="geometry" />
        </mxCell>
        <mxCell id="JxqodUXicBKc64Hk-ndb-70" value="&lt;font style=&quot;font-size: 16px;&quot;&gt;N&lt;/font&gt;" style="text;html=1;align=center;verticalAlign=middle;resizable=0;points=[];autosize=1;strokeColor=none;fillColor=none;" vertex="1" parent="1">
          <mxGeometry x="660" y="270" width="40" height="30" as="geometry" />
        </mxCell>
        <mxCell id="JxqodUXicBKc64Hk-ndb-71" value="&lt;font style=&quot;font-size: 19px;&quot;&gt;1&lt;/font&gt;" style="text;html=1;align=center;verticalAlign=middle;resizable=0;points=[];autosize=1;strokeColor=none;fillColor=none;" vertex="1" parent="1">
          <mxGeometry x="800" y="260" width="30" height="40" as="geometry" />
        </mxCell>
      </root>
    </mxGraphModel>
  </diagram>
</mxfile>
